<?xml version="1.0" standalone="no"?>
<!DOCTYPE svg PUBLIC "-//W3C//DTD SVG 20010904//EN"
 "http://www.w3.org/TR/2001/REC-SVG-20010904/DTD/svg10.dtd">
<svg version="1.0" xmlns="http://www.w3.org/2000/svg"
 width="361.000000pt" height="361.000000pt" viewBox="0 0 361.000000 361.000000"
 preserveAspectRatio="xMidYMid meet">
<metadata>
Created by potrace 1.14, written by Peter Selinger 2001-2017
</metadata>
<g transform="translate(0.000000,361.000000) scale(0.100000,-0.100000)"
fill="#000000" stroke="none">
<path d="M1705 3599 c-231 -34 -440 -161 -706 -432 -197 -199 -285 -326 -392
-567 -102 -229 -190 -551 -214 -781 -10 -94 -10 -405 -1 -484 38 -309 142
-582 310 -810 110 -149 284 -292 463 -379 204 -100 362 -137 610 -141 167 -3
218 1 380 31 48 9 226 64 275 86 229 100 378 201 509 342 20 21 41 44 47 50
34 36 108 149 143 219 65 131 84 217 85 387 0 134 -2 151 -28 225 -97 272
-315 396 -601 340 -40 -8 -165 -68 -190 -91 -11 -11 -43 -37 -70 -59 -74 -60
-152 -141 -250 -260 -151 -184 -185 -215 -235 -215 -52 0 -100 46 -137 131
-52 117 -61 153 -98 399 -20 137 -28 517 -13 680 19 216 66 407 124 506 35 60
100 114 136 114 88 0 142 -84 228 -355 92 -288 142 -392 234 -485 54 -55 101
-88 138 -96 183 -44 317 -5 454 130 79 78 130 163 169 277 27 78 30 93 44 189
48 351 -159 705 -526 898 -112 59 -307 121 -463 147 -62 10 -363 13 -425 4z"/>
</g>
</svg>
